<svg width="294" height="50" viewBox="0 0 294 50" fill="none" xmlns="http://www.w3.org/2000/svg">
<rect x="3" y="3" width="50.3443" height="43.6716" rx="12" fill="#4A3AFF" stroke="#4A3AFF" stroke-width="5" stroke-miterlimit="10" stroke-linecap="round" stroke-linejoin="round"/>
<path d="M55.8404 16.8354H35.5908C31.1725 16.8354 27.5908 20.4172 27.5908 24.8354C27.5908 29.2537 31.1725 32.8354 35.5908 32.8354H55.8404V16.8354Z" fill="#4CBFFF"/>
<circle cx="35.3223" cy="24.8354" r="4" fill="white"/>
<path d="M85.1073 25C85.6193 25.48 86.0193 26.048 86.3073 26.704C86.5953 27.36 86.7393 28.056 86.7393 28.792C86.7393 29.72 86.5153 30.584 86.0673 31.384C85.6193 32.184 85.0113 32.816 84.2433 33.28C83.4913 33.744 82.6673 33.976 81.7713 33.976H77.5953V34H73.9953V17.2H81.3873C82.2353 17.2 83.0193 17.424 83.7393 17.872C84.4593 18.304 85.0273 18.896 85.4433 19.648C85.8753 20.384 86.0913 21.176 86.0913 22.024C86.0913 22.552 86.0033 23.08 85.8273 23.608C85.6673 24.12 85.4273 24.584 85.1073 25ZM77.5953 20.632V23.728L81.3873 23.704C81.7393 23.704 82.0593 23.56 82.3473 23.272C82.6353 22.968 82.7793 22.6 82.7793 22.168C82.7793 21.72 82.6353 21.352 82.3473 21.064C82.0593 20.776 81.7393 20.632 81.3873 20.632H77.5953ZM81.7713 30.544C82.1873 30.544 82.5473 30.368 82.8513 30.016C83.1553 29.664 83.3073 29.248 83.3073 28.768C83.3073 28.288 83.1553 27.872 82.8513 27.52C82.5473 27.168 82.1873 26.992 81.7713 26.992H77.5953V30.544H81.7713ZM96.422 34.336C94.854 34.336 93.406 33.944 92.078 33.16C90.75 32.376 89.694 31.32 88.91 29.992C88.142 28.664 87.758 27.216 87.758 25.648C87.758 24.08 88.142 22.632 88.91 21.304C89.694 19.976 90.75 18.928 92.078 18.16C93.406 17.376 94.854 16.984 96.422 16.984C97.99 16.984 99.438 17.376 100.766 18.16C102.094 18.928 103.142 19.976 103.91 21.304C104.694 22.632 105.086 24.08 105.086 25.648C105.086 27.216 104.694 28.664 103.91 29.992C103.142 31.32 102.094 32.376 100.766 33.16C99.438 33.944 97.99 34.336 96.422 34.336ZM96.422 30.712C97.334 30.712 98.174 30.488 98.942 30.04C99.726 29.576 100.342 28.96 100.79 28.192C101.254 27.408 101.486 26.56 101.486 25.648C101.486 24.736 101.254 23.896 100.79 23.128C100.342 22.36 99.726 21.752 98.942 21.304C98.174 20.84 97.334 20.608 96.422 20.608C95.51 20.608 94.662 20.832 93.878 21.28C93.11 21.728 92.502 22.344 92.054 23.128C91.606 23.896 91.382 24.736 91.382 25.648C91.382 26.56 91.606 27.408 92.054 28.192C92.518 28.96 93.134 29.576 93.902 30.04C94.67 30.488 95.51 30.712 96.422 30.712ZM112.392 23.944L116.136 17.2H120.24L114.192 28.168V34H110.592V28.168L104.568 17.2H108.648L112.392 23.944ZM121.133 25.648C121.133 24.08 121.517 22.632 122.285 21.304C123.069 19.976 124.125 18.928 125.453 18.16C126.781 17.376 128.229 16.984 129.797 16.984C131.397 16.984 132.877 17.4 134.237 18.232C135.597 19.064 136.653 20.16 137.405 21.52L134.237 23.224C133.789 22.424 133.173 21.792 132.389 21.328C131.605 20.848 130.741 20.608 129.797 20.608C128.885 20.608 128.037 20.832 127.253 21.28C126.485 21.728 125.877 22.344 125.429 23.128C124.981 23.896 124.757 24.736 124.757 25.648C124.757 26.56 124.981 27.408 125.429 28.192C125.893 28.96 126.509 29.576 127.277 30.04C128.045 30.488 128.885 30.712 129.797 30.712C130.741 30.712 131.613 30.472 132.413 29.992C133.213 29.496 133.829 28.84 134.261 28.024L137.453 29.752C136.701 31.128 135.637 32.24 134.261 33.088C132.901 33.92 131.413 34.336 129.797 34.336C128.229 34.336 126.781 33.944 125.453 33.16C124.125 32.376 123.069 31.32 122.285 29.992C121.517 28.664 121.133 27.216 121.133 25.648ZM146.953 34.336C145.385 34.336 143.937 33.944 142.609 33.16C141.281 32.376 140.225 31.32 139.441 29.992C138.673 28.664 138.289 27.216 138.289 25.648C138.289 24.08 138.673 22.632 139.441 21.304C140.225 19.976 141.281 18.928 142.609 18.16C143.937 17.376 145.385 16.984 146.953 16.984C148.521 16.984 149.969 17.376 151.297 18.16C152.625 18.928 153.673 19.976 154.441 21.304C155.225 22.632 155.617 24.08 155.617 25.648C155.617 27.216 155.225 28.664 154.441 29.992C153.673 31.32 152.625 32.376 151.297 33.16C149.969 33.944 148.521 34.336 146.953 34.336ZM146.953 30.712C147.865 30.712 148.705 30.488 149.473 30.04C150.257 29.576 150.873 28.96 151.321 28.192C151.785 27.408 152.017 26.56 152.017 25.648C152.017 24.736 151.785 23.896 151.321 23.128C150.873 22.36 150.257 21.752 149.473 21.304C148.705 20.84 147.865 20.608 146.953 20.608C146.041 20.608 145.193 20.832 144.409 21.28C143.641 21.728 143.033 22.344 142.585 23.128C142.137 23.896 141.913 24.736 141.913 25.648C141.913 26.56 142.137 27.408 142.585 28.192C143.049 28.96 143.665 29.576 144.433 30.04C145.201 30.488 146.041 30.712 146.953 30.712ZM168.359 17.2V20.608H163.919V34H160.295V20.608H155.879V17.2H168.359ZM182.328 17.2V20.608H177.888V34H174.264V20.608H169.848V17.2H182.328Z" fill="#4A3AFF"/>
<path d="M201.593 17.2V20.608H197.153V34H193.529V20.608H189.113V17.2H201.593ZM212.635 34L209.515 28.384H206.947V34H203.347V17.2H210.283C211.307 17.2 212.243 17.448 213.091 17.944C213.955 18.44 214.635 19.12 215.131 19.984C215.643 20.832 215.899 21.768 215.899 22.792C215.899 23.8 215.651 24.728 215.155 25.576C214.675 26.424 214.019 27.096 213.187 27.592L216.787 34H212.635ZM206.947 20.632V24.952H210.283C210.875 24.952 211.387 24.744 211.819 24.328C212.251 23.896 212.467 23.384 212.467 22.792C212.467 22.2 212.251 21.696 211.819 21.28C211.403 20.848 210.891 20.632 210.283 20.632H206.947ZM233.576 34H229.736L228.56 30.832H222.344L221.168 34H217.304L223.52 17.2H227.384L233.576 34ZM225.464 22.432L223.592 27.424H227.312L225.464 22.432ZM233.352 25.648C233.352 24.08 233.736 22.632 234.504 21.304C235.288 19.976 236.344 18.928 237.672 18.16C239 17.376 240.448 16.984 242.016 16.984C243.616 16.984 245.096 17.4 246.456 18.232C247.816 19.064 248.872 20.16 249.624 21.52L246.456 23.224C246.008 22.424 245.392 21.792 244.608 21.328C243.824 20.848 242.96 20.608 242.016 20.608C241.104 20.608 240.256 20.832 239.472 21.28C238.704 21.728 238.096 22.344 237.648 23.128C237.2 23.896 236.976 24.736 236.976 25.648C236.976 26.56 237.2 27.408 237.648 28.192C238.112 28.96 238.728 29.576 239.496 30.04C240.264 30.488 241.104 30.712 242.016 30.712C242.96 30.712 243.832 30.472 244.632 29.992C245.432 29.496 246.048 28.84 246.48 28.024L249.672 29.752C248.92 31.128 247.856 32.24 246.48 33.088C245.12 33.92 243.632 34.336 242.016 34.336C240.448 34.336 239 33.944 237.672 33.16C236.344 32.376 235.288 31.32 234.504 29.992C233.736 28.664 233.352 27.216 233.352 25.648ZM266.127 33.976L261.615 34L256.719 27.712L255.111 29.632V34H251.511V17.2H255.111V23.968L260.823 17.2H265.455L259.071 24.856L266.127 33.976ZM270.744 27.16V30.568H277.56V34H267.144V17.2H277.416V20.608H270.744V23.728H276.84V27.16H270.744ZM289.088 34L285.968 28.384H283.4V34H279.8V17.2H286.736C287.76 17.2 288.696 17.448 289.544 17.944C290.408 18.44 291.088 19.12 291.584 19.984C292.096 20.832 292.352 21.768 292.352 22.792C292.352 23.8 292.104 24.728 291.608 25.576C291.128 26.424 290.472 27.096 289.64 27.592L293.24 34H289.088ZM283.4 20.632V24.952H286.736C287.328 24.952 287.84 24.744 288.272 24.328C288.704 23.896 288.92 23.384 288.92 22.792C288.92 22.2 288.704 21.696 288.272 21.28C287.856 20.848 287.344 20.632 286.736 20.632H283.4Z" fill="#4CBFFF"/>
</svg>
